#Comment line ignore any data following # character 
#Hierarchical Translation and Rotation (.htr) file 
[Header]	
#Header keywords are followed by a single value 
FileType HTR		#Single word string
DataType HTRS		#Translation followed by rotation and scale data
FileVersion 1		#integer
NumSegments 84		#integer
NumFrames 2		#integer
DataFrameRate 30		#integer, data frame rate in this file
EulerRotationOrder ZYX
CalibrationUnits mm
RotationUnits Degrees
GlobalAxisofGravity Y
BoneLengthAxis Y
ScaleFactor 1.00
[SegmentNames&Hierarchy]
#CHILD	PARENT
MASTER GLOBAL
root MASTER
chest root
L_mid_tent01 root
R_mid_tent01 root
spine01 root
Bip01_Neck chest
L_humerus chest
R_humerus chest
weapon_bone chest
Bip01_Head Bip01_Neck
eye_left_bone Bip01_Head
eye_right_bone Bip01_Head
L_forearm L_humerus
L_front_hand L_forearm
L_weapon_bone L_forearm
L_front_hand01_01 L_front_hand
L_front_hand02_01 L_front_hand
L_front_hand03_01 L_front_hand
L_front_hand01_02 L_front_hand01_01
L_front_hand02_02 L_front_hand02_01
L_front_hand03_02 L_front_hand03_01
R_forearm R_humerus
R_front_hand R_forearm
R_weapon_bone R_forearm
R_front_hand01_01 R_front_hand
R_front_hand02_01 R_front_hand
R_front_hand03_01 R_front_hand
R_front_hand01_02 R_front_hand01_01
R_front_hand02_02 R_front_hand02_01
R_front_hand03_02 R_front_hand03_01
null_rope01_connect L_mid_tent01
Rope1_Seg01 null_rope01_connect
Rope1_Seg02 Rope1_Seg01
Rope1_Seg03 Rope1_Seg02
Rope1_Seg04 Rope1_Seg03
Rope1_Seg05 Rope1_Seg04
Rope1_Seg06 Rope1_Seg05
Rope1_Seg07 Rope1_Seg06
Rope1_Seg09 Rope1_Seg07
L_mid_hand01 Rope1_Seg09
L_mid_hand02 Rope1_Seg09
L_mid_hand03 Rope1_Seg09
null_rope02_connect R_mid_tent01
Rope2_Seg01 null_rope02_connect
Rope2_Seg02 Rope2_Seg01
Rope2_Seg03 Rope2_Seg02
Rope2_Seg04 Rope2_Seg03
Rope2_Seg05 Rope2_Seg04
Rope2_Seg06 Rope2_Seg05
Rope2_Seg07 Rope2_Seg06
Rope2_Seg09 Rope2_Seg07
R_mid_hand01 Rope2_Seg09
R_mid_hand02 Rope2_Seg09
R_mid_hand03 Rope2_Seg09
spine02 spine01
spine03 spine02
pelvis spine03
null_rope03_connect pelvis
null_rope04_connect pelvis
Rope3_Seg01 null_rope03_connect
Rope3_Seg02 Rope3_Seg01
Rope3_Seg03 Rope3_Seg02
Rope3_Seg04 Rope3_Seg03
Rope3_Seg05 Rope3_Seg04
Rope3_Seg06 Rope3_Seg05
Rope3_Seg07 Rope3_Seg06
Rope3_Seg08 Rope3_Seg07
Rope3_Seg09 Rope3_Seg08
R_rear_hand01 Rope3_Seg09
R_rear_hand02 Rope3_Seg09
R_rear_hand03 Rope3_Seg09
Rope4_Seg01 null_rope04_connect
Rope4_Seg02 Rope4_Seg01
Rope4_Seg03 Rope4_Seg02
Rope4_Seg04 Rope4_Seg03
Rope4_Seg05 Rope4_Seg04
Rope4_Seg06 Rope4_Seg05
Rope4_Seg07 Rope4_Seg06
Rope4_Seg08 Rope4_Seg07
Rope4_Seg09 Rope4_Seg08
L_rear_hand01 Rope4_Seg09
L_rear_hand02 Rope4_Seg09
L_rear_hand03 Rope4_Seg09
[BasePosition]
#SegmentName Tx, Ty, Tz, Rx, Ry, Rz, BoneLength
MASTER 0.000000 0.000000 0.000000 -90.000000 0.000000 0.000000 10.000000 
root 0.000000 0.000000 0.000000 0.000000 0.000000 0.000000 10.000000 
chest 0.000000 0.000000 0.000000 0.000000 0.000000 0.000000 10.000000 
L_mid_tent01 0.000000 0.000000 0.000000 0.000000 0.000000 0.000000 10.000000 
R_mid_tent01 0.000000 0.000000 0.000000 0.000000 0.000000 0.000000 10.000000 
spine01 0.000000 0.000000 0.000000 0.000000 0.000000 0.000000 10.000000 
Bip01_Neck 0.000000 0.000000 0.000000 0.000000 0.000000 0.000000 10.000000 
L_humerus 0.000000 0.000000 0.000000 0.000000 0.000000 0.000000 10.000000 
R_humerus 0.000000 0.000000 0.000000 0.000000 0.000000 0.000000 10.000000 
weapon_bone 0.000000 0.000000 0.000000 0.000000 0.000000 0.000000 10.000000 
Bip01_Head 0.000000 0.000000 0.000000 0.000000 0.000000 0.000000 10.000000 
eye_left_bone 0.000000 0.000000 0.000000 0.000000 0.000000 0.000000 10.000000 
eye_right_bone 0.000000 0.000000 0.000000 0.000000 0.000000 0.000000 10.000000 
L_forearm 0.000000 0.000000 0.000000 0.000000 0.000000 0.000000 10.000000 
L_front_hand 0.000000 0.000000 0.000000 0.000000 0.000000 0.000000 10.000000 
L_weapon_bone 0.000000 0.000000 0.000000 0.000000 0.000000 0.000000 10.000000 
L_front_hand01_01 0.000000 0.000000 0.000000 0.000000 0.000000 0.000000 10.000000 
L_front_hand02_01 0.000000 0.000000 0.000000 0.000000 0.000000 0.000000 10.000000 
L_front_hand03_01 0.000000 0.000000 0.000000 0.000000 0.000000 0.000000 10.000000 
L_front_hand01_02 0.000000 0.000000 0.000000 0.000000 0.000000 0.000000 10.000000 
L_front_hand02_02 0.000000 0.000000 0.000000 0.000000 0.000000 0.000000 10.000000 
L_front_hand03_02 0.000000 0.000000 0.000000 0.000000 0.000000 0.000000 10.000000 
R_forearm 0.000000 0.000000 0.000000 0.000000 0.000000 0.000000 10.000000 
R_front_hand 0.000000 0.000000 0.000000 0.000000 0.000000 0.000000 10.000000 
R_weapon_bone 0.000000 0.000000 0.000000 0.000000 0.000000 0.000000 10.000000 
R_front_hand01_01 0.000000 0.000000 0.000000 0.000000 0.000000 0.000000 10.000000 
R_front_hand02_01 0.000000 0.000000 0.000000 0.000000 0.000000 0.000000 10.000000 
R_front_hand03_01 0.000000 0.000000 0.000000 0.000000 0.000000 0.000000 10.000000 
R_front_hand01_02 0.000000 0.000000 0.000000 0.000000 0.000000 0.000000 10.000000 
R_front_hand02_02 0.000000 0.000000 0.000000 0.000000 0.000000 0.000000 10.000000 
R_front_hand03_02 0.000000 0.000000 0.000000 0.000000 0.000000 0.000000 10.000000 
null_rope01_connect 0.000000 0.000000 0.000000 0.000000 0.000000 0.000000 10.000000 
Rope1_Seg01 0.000000 0.000000 0.000000 0.000000 0.000000 0.000000 10.000000 
Rope1_Seg02 0.000000 0.000000 0.000000 0.000000 0.000000 0.000000 10.000000 
Rope1_Seg03 0.000000 0.000000 0.000000 0.000000 0.000000 0.000000 10.000000 
Rope1_Seg04 0.000000 0.000000 0.000000 0.000000 0.000000 0.000000 10.000000 
Rope1_Seg05 0.000000 0.000000 0.000000 0.000000 0.000000 0.000000 10.000000 
Rope1_Seg06 0.000000 0.000000 0.000000 0.000000 0.000000 0.000000 10.000000 
Rope1_Seg07 0.000000 0.000000 0.000000 0.000000 0.000000 0.000000 10.000000 
Rope1_Seg09 0.000000 0.000000 0.000000 0.000000 0.000000 0.000000 10.000000 
L_mid_hand01 0.000000 0.000000 0.000000 0.000000 0.000000 0.000000 10.000000 
L_mid_hand02 0.000000 0.000000 0.000000 0.000000 0.000000 0.000000 10.000000 
L_mid_hand03 0.000000 0.000000 0.000000 0.000000 0.000000 0.000000 10.000000 
null_rope02_connect 0.000000 0.000000 0.000000 0.000000 0.000000 0.000000 10.000000 
Rope2_Seg01 0.000000 0.000000 0.000000 0.000000 0.000000 0.000000 10.000000 
Rope2_Seg02 0.000000 0.000000 0.000000 0.000000 0.000000 0.000000 10.000000 
Rope2_Seg03 0.000000 0.000000 0.000000 0.000000 0.000000 0.000000 10.000000 
Rope2_Seg04 0.000000 0.000000 0.000000 0.000000 0.000000 0.000000 10.000000 
Rope2_Seg05 0.000000 0.000000 0.000000 0.000000 0.000000 0.000000 10.000000 
Rope2_Seg06 0.000000 0.000000 0.000000 0.000000 0.000000 0.000000 10.000000 
Rope2_Seg07 0.000000 0.000000 0.000000 0.000000 0.000000 0.000000 10.000000 
Rope2_Seg09 0.000000 0.000000 0.000000 0.000000 0.000000 0.000000 10.000000 
R_mid_hand01 0.000000 0.000000 0.000000 0.000000 0.000000 0.000000 10.000000 
R_mid_hand02 0.000000 0.000000 0.000000 0.000000 0.000000 0.000000 10.000000 
R_mid_hand03 0.000000 0.000000 0.000000 0.000000 0.000000 0.000000 10.000000 
spine02 0.000000 0.000000 0.000000 0.000000 0.000000 0.000000 10.000000 
spine03 0.000000 0.000000 0.000000 0.000000 0.000000 0.000000 10.000000 
pelvis 0.000000 0.000000 0.000000 0.000000 0.000000 0.000000 10.000000 
null_rope03_connect 0.000000 0.000000 0.000000 0.000000 0.000000 0.000000 10.000000 
null_rope04_connect 0.000000 0.000000 0.000000 0.000000 0.000000 0.000000 10.000000 
Rope3_Seg01 0.000000 0.000000 0.000000 0.000000 0.000000 0.000000 10.000000 
Rope3_Seg02 0.000000 0.000000 0.000000 0.000000 0.000000 0.000000 10.000000 
Rope3_Seg03 0.000000 0.000000 0.000000 0.000000 0.000000 0.000000 10.000000 
Rope3_Seg04 0.000000 0.000000 0.000000 0.000000 0.000000 0.000000 10.000000 
Rope3_Seg05 0.000000 0.000000 0.000000 0.000000 0.000000 0.000000 10.000000 
Rope3_Seg06 0.000000 0.000000 0.000000 0.000000 0.000000 0.000000 10.000000 
Rope3_Seg07 0.000000 0.000000 0.000000 0.000000 0.000000 0.000000 10.000000 
Rope3_Seg08 0.000000 0.000000 0.000000 0.000000 0.000000 0.000000 10.000000 
Rope3_Seg09 0.000000 0.000000 0.000000 0.000000 0.000000 0.000000 10.000000 
R_rear_hand01 0.000000 0.000000 0.000000 0.000000 0.000000 0.000000 10.000000 
R_rear_hand02 0.000000 0.000000 0.000000 0.000000 0.000000 0.000000 10.000000 
R_rear_hand03 0.000000 0.000000 0.000000 0.000000 0.000000 0.000000 10.000000 
Rope4_Seg01 0.000000 0.000000 0.000000 0.000000 0.000000 0.000000 10.000000 
Rope4_Seg02 0.000000 0.000000 0.000000 0.000000 0.000000 0.000000 10.000000 
Rope4_Seg03 0.000000 0.000000 0.000000 0.000000 0.000000 0.000000 10.000000 
Rope4_Seg04 0.000000 0.000000 0.000000 0.000000 0.000000 0.000000 10.000000 
Rope4_Seg05 0.000000 0.000000 0.000000 0.000000 0.000000 0.000000 10.000000 
Rope4_Seg06 0.000000 0.000000 0.000000 0.000000 0.000000 0.000000 10.000000 
Rope4_Seg07 0.000000 0.000000 0.000000 0.000000 0.000000 0.000000 10.000000 
Rope4_Seg08 0.000000 0.000000 0.000000 0.000000 0.000000 0.000000 10.000000 
Rope4_Seg09 0.000000 0.000000 0.000000 0.000000 0.000000 0.000000 10.000000 
L_rear_hand01 0.000000 0.000000 0.000000 0.000000 0.000000 0.000000 10.000000 
L_rear_hand02 0.000000 0.000000 0.000000 0.000000 0.000000 0.000000 10.000000 
L_rear_hand03 0.000000 0.000000 0.000000 0.000000 0.000000 0.000000 10.000000 
#Beginning of Data. Separated by tabs
#Fr	Tx	Ty	Tz	Rx	Ry	Rz	SF
[MASTER]
39 0.000000 0.000000 0.000000 0.001660 0.001660 0.001660 0.000000
40 0.000000 0.000000 0.000000 0.001660 0.001660 0.001660 0.000000
[root]
39 -5.775061 -52.352470 1543.681274 -107.625969 13.925612 -87.298988 1544.579590
40 -6.406511 -52.399776 1550.243530 -107.657341 14.190021 -87.394341 1551.142090
[chest]
39 -86.836601 -33.005978 -30.127235 0.974243 -9.290771 -175.531769 97.660843
40 -86.836601 -33.005978 -30.127234 0.624473 -9.269047 -175.863434 97.660843
[L_mid_tent01]
39 27.299488 22.177580 -249.918289 -5.185060 18.640369 77.237602 252.381180
40 27.299488 22.177580 -249.918289 -5.093968 17.922434 77.272560 252.381180
[R_mid_tent01]
39 23.228794 24.509907 226.238495 -176.025513 -17.233374 65.533699 228.744751
40 23.228794 24.509907 226.238495 -176.032730 -16.955902 65.556396 228.744751
[spine01]
39 -0.361383 -0.195265 0.000000 -0.000001 -0.000007 22.052340 0.410763
40 -0.361383 -0.195265 0.000000 -0.000001 -0.000007 22.052340 0.410763
[Bip01_Neck]
39 165.484543 71.581718 0.000119 175.896118 1.177290 24.871183 180.302734
40 165.484543 71.581718 0.000119 175.896118 1.177290 24.871183 180.302734
[L_humerus]
39 -13.983130 -135.272980 -120.471481 -168.517593 36.033756 -113.483017 181.680161
40 -13.983130 -135.272980 -120.471481 -168.517593 36.033756 -113.483017 181.680161
[R_humerus]
39 -13.983309 -135.273102 125.287651 -179.588654 -28.895130 -122.030510 184.909012
40 -13.983309 -135.273102 125.287651 -179.588654 -28.895136 -122.030510 184.909012
[weapon_bone]
39 235.964890 -300.705902 0.000000 0.000000 -89.951546 -128.212341 382.234833
40 235.964890 -300.705902 0.000000 0.000000 -89.951546 -128.212341 382.234833
[Bip01_Head]
39 189.519958 179.130234 22.124910 -23.626308 5.787232 14.654977 261.715424
40 189.519958 179.130234 22.124910 -23.626301 5.787230 14.654975 261.715424
[eye_left_bone]
39 -24.626970 125.451866 -64.772606 0.000000 -90.000000 -99.840431 143.318359
40 -24.626970 125.451866 -64.772606 0.000000 -90.000000 -99.840431 143.318359
[eye_right_bone]
39 -24.626970 125.451866 64.327362 0.000000 -89.965736 80.156380 143.117676
40 -24.626970 125.451866 64.327362 0.000000 -89.965736 80.156380 143.117676
[L_forearm]
39 322.776093 0.000000 -0.000119 0.000017 0.002347 -89.149834 322.776093
40 322.776093 0.000000 -0.000119 0.000017 0.002347 -89.149834 322.776093
[L_front_hand]
39 241.149185 -0.042021 -3.300071 49.347107 -2.241849 -0.021115 241.171753
40 241.149185 -0.042021 -3.300071 48.667530 -2.242366 -0.018869 241.171753
[L_weapon_bone]
39 156.183838 0.000000 0.000000 0.000014 0.000007 0.000001 156.183838
40 156.183838 0.000000 0.000000 0.000014 0.000007 0.000001 156.183838
[L_front_hand01_01]
39 86.095154 20.947098 -0.655860 -0.366594 -0.477154 75.385574 88.609184
40 86.095154 20.947098 -0.655860 -0.366594 -0.477154 75.385574 88.609184
[L_front_hand02_01]
39 86.935165 -11.437475 24.513514 154.399796 -59.883835 -61.369587 91.046425
40 86.935165 -11.437475 24.513514 154.399796 -59.883835 -61.369587 91.046425
[L_front_hand03_01]
39 86.637497 -14.123976 -20.424902 -153.913849 58.118122 -62.702866 90.126129
40 86.637497 -14.123976 -20.424902 -153.913879 58.118130 -62.702892 90.126129
[L_front_hand01_02]
39 71.020905 -0.000179 0.000030 0.000334 -0.002323 -106.379684 71.020905
40 71.020905 -0.000179 0.000030 0.000334 -0.002323 -106.379684 71.020905
[L_front_hand02_02]
39 71.020927 -0.000119 0.000060 0.000334 -0.002323 -106.379684 71.020927
40 71.020927 -0.000119 0.000060 0.000334 -0.002323 -106.379684 71.020927
[L_front_hand03_02]
39 71.020905 -0.000060 0.000060 0.000334 -0.002323 -106.379684 71.020905
40 71.020905 -0.000060 0.000060 0.000334 -0.002323 -106.379684 71.020905
[R_forearm]
39 322.776428 -0.000060 0.000030 0.213197 0.007525 -93.425262 322.776428
40 322.776428 -0.000060 0.000030 0.213197 0.007525 -93.425262 322.776428
[R_front_hand]
39 238.847015 -0.006795 2.210259 -0.270529 1.703932 2.322530 238.857239
40 238.847015 -0.006795 2.210259 -0.270529 1.703932 2.322530 238.857239
[R_weapon_bone]
39 155.664093 0.002503 -0.000030 0.003487 0.001180 -90.988930 155.664078
40 155.664093 0.002503 -0.000030 0.003487 0.001180 -90.988930 155.664078
[R_front_hand01_01]
39 87.624611 14.231146 22.918642 -154.633499 -59.950619 61.746044 91.683487
40 87.624611 14.231146 22.918642 -154.633514 -59.950634 61.746063 91.683487
[R_front_hand02_01]
39 89.356956 14.367283 -19.491137 154.602661 58.302849 63.744389 92.579636
40 89.356956 14.367283 -19.491137 154.602661 58.302849 63.744389 92.579636
[R_front_hand03_01]
39 87.286232 -22.307278 -0.143439 0.162155 -0.423168 -75.767921 90.091743
40 87.286232 -22.307278 -0.143439 0.162155 -0.423168 -75.767921 90.091743
[R_front_hand01_02]
39 71.020905 0.000060 0.000119 0.002323 -0.000334 106.381714 71.020905
40 71.020905 0.000060 0.000119 0.002323 -0.000334 106.381714 71.020905
[R_front_hand02_02]
39 71.020844 -0.000030 -0.000119 0.002323 -0.000334 106.381714 71.020836
40 71.020844 -0.000030 -0.000119 0.002323 -0.000334 106.381714 71.020836
[R_front_hand03_02]
39 71.020905 0.000000 0.000030 0.002323 -0.000334 106.381714 71.020905
40 71.020905 0.000000 0.000030 0.002323 -0.000334 106.381714 71.020905
[null_rope01_connect]
39 328.732483 0.000000 -0.000238 160.996658 -52.260059 -162.307465 328.732483
40 328.732483 0.000000 -0.000238 160.622833 -52.955826 -162.248154 328.732483
[Rope1_Seg01]
39 0.000000 0.000000 0.000000 -152.977310 53.439213 -131.636398 0.000000
40 0.000000 0.000000 0.000000 -154.108017 53.081856 -132.147888 0.000000
[Rope1_Seg02]
39 139.999863 -0.000179 0.000000 10.403519 -6.565775 -2.546708 139.999863
40 139.999863 -0.000179 0.000000 10.250429 -6.463063 -2.443726 139.999863
[Rope1_Seg03]
39 139.999924 0.000060 -0.000060 10.689332 -9.913321 -1.416659 139.999924
40 139.999924 0.000060 -0.000060 10.504670 -9.762315 -1.276738 139.999924
[Rope1_Seg04]
39 139.999924 -0.000060 -0.000119 8.456385 -20.226791 4.976792 139.999924
40 139.999924 -0.000060 -0.000119 8.165686 -19.885366 5.261225 139.999924
[Rope1_Seg05]
39 139.999832 0.000119 -0.000060 3.554518 3.750027 -11.302321 139.999832
40 139.999832 0.000119 -0.000060 3.835030 4.166800 -12.122836 139.999832
[Rope1_Seg06]
39 139.999954 0.000119 -0.000060 1.799283 12.242047 -17.213852 139.999954
40 139.999954 0.000119 -0.000060 3.134675 11.781961 -17.533247 139.999954
[Rope1_Seg07]
39 139.999985 0.000060 0.000000 5.801248 3.150687 -6.723760 139.999985
40 139.999985 0.000060 0.000000 7.109998 2.803299 -6.812460 139.999985
[Rope1_Seg09]
39 121.602913 0.000119 -0.000089 -89.793175 -1.359789 0.847147 121.602913
40 121.602913 0.000119 -0.000089 -89.793175 -1.359789 0.847147 121.602913
[L_mid_hand01]
39 103.859421 1.038730 8.195221 106.855484 -31.239275 -9.461397 104.187431
40 103.859421 1.038730 8.195221 106.855484 -31.239275 -9.461397 104.187431
[L_mid_hand02]
39 105.572853 -4.139662 -10.864139 -142.331345 25.752670 -28.774628 106.211075
40 105.572853 -4.139662 -10.864139 -142.331345 25.752670 -28.774628 106.211075
[L_mid_hand03]
39 104.641464 17.579376 -3.913581 -16.122810 9.734291 34.223598 106.179977
40 104.641464 17.579376 -3.913581 -16.122810 9.734291 34.223598 106.179977
[null_rope02_connect]
39 328.732849 0.000179 -0.000119 -95.215538 83.908669 75.387199 328.732849
40 328.732849 0.000179 -0.000119 -92.593964 84.058228 78.262238 328.732849
[Rope2_Seg01]
39 0.000076 0.000111 0.000153 118.249252 83.233727 -126.213440 0.000204
40 0.000076 0.000111 0.000153 113.779320 83.168785 -130.685822 0.000204
[Rope2_Seg02]
39 139.999741 -0.000060 -0.000119 -3.108304 6.924600 6.761938 139.999756
40 139.999741 -0.000060 -0.000119 -3.000406 7.047922 6.621506 139.999756
[Rope2_Seg03]
39 140.000107 0.000030 0.000000 -5.062608 8.055492 10.529750 140.000107
40 140.000107 0.000030 0.000000 -4.982103 8.289539 10.381867 140.000107
[Rope2_Seg04]
39 139.999802 0.000000 -0.000060 -5.967930 7.652998 11.625792 139.999802
40 139.999802 0.000000 -0.000060 -5.966283 7.955042 11.422567 139.999802
[Rope2_Seg05]
39 139.999985 -0.000060 0.000119 1.953402 4.396307 -6.094089 139.999985
40 139.999985 -0.000060 0.000119 1.953851 4.345360 -6.020479 139.999985
[Rope2_Seg06]
39 139.999893 -0.000030 -0.000119 2.350600 2.399223 -4.873698 139.999893
40 139.999893 -0.000030 -0.000119 2.237734 2.360175 -4.653852 139.999893
[Rope2_Seg07]
39 139.999893 0.000060 -0.000060 0.797606 1.642574 -1.933376 139.999893
40 139.999893 0.000060 -0.000060 0.746614 1.646174 -1.862345 139.999893
[Rope2_Seg09]
39 121.338966 0.000089 -0.000060 33.793236 -1.359788 -0.847141 121.338966
40 121.338966 0.000089 -0.000060 33.793236 -1.359788 -0.847141 121.338966
[R_mid_hand01]
39 104.680779 11.144459 -10.335981 -41.523792 25.424656 28.595957 105.778534
40 104.680779 11.144459 -10.335981 -41.523792 25.424656 28.595957 105.778534
[R_mid_hand02]
39 104.070427 2.443552 8.231699 72.847389 -32.746803 10.013901 104.424065
40 104.070427 2.443552 8.231699 72.847389 -32.746803 10.013901 104.424065
[R_mid_hand03]
39 106.028137 -11.221827 -5.996406 -167.901306 10.259192 -37.009720 106.788818
40 106.028137 -11.221827 -5.996406 -167.901306 10.259192 -37.009720 106.788818
[spine02]
39 129.756927 0.001550 0.000119 -0.245322 -4.052060 -4.355547 129.756927
40 129.756927 0.001550 0.000119 -0.245322 -4.052060 -4.355547 129.756927
[spine03]
39 78.613846 0.087372 -4.898873 0.207411 -2.089716 -0.432471 78.766380
40 78.613846 0.087372 -4.898873 0.207411 -2.089716 -0.432471 78.766380
[pelvis]
39 169.435242 0.051022 0.000000 -0.010007 -0.191417 -1.897554 169.435257
40 169.435242 0.051022 0.000000 -0.010007 -0.191417 -1.897554 169.435257
[null_rope03_connect]
39 -1.257226 -2.466202 137.391083 138.141800 -71.453781 -78.048592 137.418976
40 -1.257226 -2.466202 137.391083 138.144226 -71.479706 -78.327515 137.418976
[null_rope04_connect]
39 -1.259640 -2.480268 -137.844437 138.141800 -71.453781 -78.048592 137.872513
40 -1.259640 -2.480268 -137.844437 138.144226 -71.479706 -78.327515 137.872513
[Rope3_Seg01]
39 0.000000 0.000000 0.000000 -178.380890 72.747871 -114.820877 0.000000
40 0.000000 0.000000 0.000000 179.475800 72.780212 -116.879814 0.000000
[Rope3_Seg02]
39 139.999924 -0.000119 0.000060 4.323282 8.239675 -4.079244 139.999924
40 139.999924 -0.000119 0.000060 4.467353 8.368933 -3.950124 139.999924
[Rope3_Seg03]
39 139.999924 -0.000119 0.000119 7.691631 14.927377 -7.395037 139.999924
40 139.999924 -0.000119 0.000119 8.011943 15.082038 -7.214569 139.999924
[Rope3_Seg04]
39 139.999924 0.000119 0.000000 8.885318 17.797308 -12.591494 139.999924
40 139.999924 0.000119 0.000000 9.460754 18.221653 -12.595022 139.999924
[Rope3_Seg05]
39 139.999924 -0.000238 0.000060 -11.294366 -24.699148 8.792410 139.999924
40 139.999924 -0.000238 0.000060 -11.433502 -24.343699 8.431163 139.999924
[Rope3_Seg06]
39 139.999893 -0.000119 -0.000060 -3.698392 -17.146643 3.397061 139.999893
40 139.999893 -0.000119 -0.000060 -3.941382 -17.414339 3.289121 139.999893
[Rope3_Seg07]
39 139.999771 0.000060 -0.000119 -0.340089 -7.450336 0.529334 139.999771
40 139.999771 0.000060 -0.000119 -0.398306 -7.604068 0.424661 139.999771
[Rope3_Seg08]
39 139.999985 -0.000060 0.000000 0.264121 -4.139421 0.269255 139.999985
40 139.999985 -0.000060 0.000000 0.241700 -4.233253 0.200590 139.999985
[Rope3_Seg09]
39 90.185997 -0.000179 -0.000060 89.793228 -1.359877 -0.847183 90.185997
40 90.185997 -0.000179 -0.000060 89.793228 -1.359877 -0.847183 90.185997
[R_rear_hand01]
39 103.366196 -6.073594 -10.757982 -161.551193 16.666374 -30.088671 104.101845
40 103.366196 -6.073594 -10.757982 -161.551193 16.666374 -30.088671 104.101845
[R_rear_hand02]
39 100.509819 12.039542 -7.992327 -34.280552 19.289745 28.875523 101.543350
40 100.509819 12.039542 -7.992327 -34.280552 19.289745 28.875523 101.543350
[R_rear_hand03]
39 101.539970 5.215704 5.435467 83.366440 -30.933914 7.284830 101.819031
40 101.539970 5.215704 5.435467 83.366440 -30.933914 7.284830 101.819031
[Rope4_Seg01]
39 0.000010 0.000038 -0.000114 27.409590 62.397274 -134.220673 0.000121
40 0.000010 0.000038 -0.000114 26.062227 61.810665 -135.745316 0.000121
[Rope4_Seg02]
39 139.999985 0.000060 0.000119 -0.012503 3.082720 5.727942 139.999985
40 139.999985 0.000060 0.000119 0.039468 3.015944 5.947198 139.999985
[Rope4_Seg03]
39 139.999924 0.000000 -0.000238 -0.578381 3.291972 7.585471 139.999924
40 139.999924 0.000000 -0.000238 -0.545102 3.197903 7.938786 139.999924
[Rope4_Seg04]
39 139.999985 0.000000 0.000119 -0.703763 3.259273 5.495598 139.999985
40 139.999985 0.000000 0.000119 -0.690918 3.225192 5.659589 139.999985
[Rope4_Seg05]
39 139.999802 -0.000060 -0.000119 1.264614 2.061263 -3.240911 139.999802
40 139.999802 -0.000060 -0.000119 1.299106 2.219170 -3.535540 139.999802
[Rope4_Seg06]
39 139.999924 0.000000 0.000060 0.740529 1.386326 -1.483162 139.999924
40 139.999924 0.000000 0.000060 0.757650 1.471471 -1.606072 139.999924
[Rope4_Seg07]
39 139.999802 0.000000 0.000000 0.533689 1.068574 -0.759990 139.999802
40 139.999802 0.000000 0.000000 0.547298 1.123501 -0.848637 139.999802
[Rope4_Seg08]
39 139.999924 0.000000 0.000119 -1.217354 0.605344 -0.440023 139.999924
40 139.999924 0.000000 0.000119 -1.207862 0.637009 -0.489768 139.999924
[Rope4_Seg09]
39 90.185791 0.000060 0.000060 -135.617828 2.228885 0.850567 90.185791
40 90.185791 0.000060 0.000060 -135.617828 2.228885 0.850567 90.185791
[L_rear_hand01]
39 101.696655 -8.392275 -7.654577 -34.454281 -18.946800 151.655121 102.329041
40 101.696655 -8.392275 -7.654577 -34.454281 -18.946800 151.655121 102.329041
[L_rear_hand02]
39 102.726799 -1.568258 5.773216 83.407906 30.330435 172.796509 102.900848
40 102.726799 -1.568258 5.773216 83.407906 30.330435 172.796509 102.900848
[L_rear_hand03]
39 104.552910 9.721220 -10.420293 -161.379868 -16.473232 -150.512238 105.519653
40 104.552910 9.721220 -10.420293 -161.379868 -16.473232 -150.512238 105.519653
